<svg xmlns="http://www.w3.org/2000/svg" width="168" height="168" viewBox="0 0 168 168" shape-rendering="crispEdges"><rect x="0" y="0" width="168" height="168" fill="#ffffff"/><rect x="8" y="8" width="8" height="8" fill="#000000"/><rect x="32" y="8" width="8" height="8" fill="#000000"/><rect x="56" y="8" width="8" height="8" fill="#000000"/><rect x="64" y="8" width="8" height="8" fill="#000000"/><rect x="80" y="8" width="8" height="8" fill="#000000"/><rect x="88" y="8" width="8" height="8" fill="#000000"/><rect x="120" y="8" width="8" height="8" fill="#000000"/><rect x="152" y="8" width="8" height="8" fill="#000000"/><rect x="16" y="16" width="8" height="8" fill="#000000"/><rect x="32" y="16" width="8" height="8" fill="#000000"/><rect x="40" y="16" width="8" height="8" fill="#000000"/><rect x="48" y="16" width="8" height="8" fill="#000000"/><rect x="56" y="16" width="8" height="8" fill="#000000"/><rect x="88" y="16" width="8" height="8" fill="#000000"/><rect x="96" y="16" width="8" height="8" fill="#000000"/><rect x="112" y="16" width="8" height="8" fill="#000000"/><rect x="136" y="16" width="8" height="8" fill="#000000"/><rect x="8" y="24" width="8" height="8" fill="#000000"/><rect x="32" y="24" width="8" height="8" fill="#000000"/><rect x="40" y="24" width="8" height="8" fill="#000000"/><rect x="80" y="24" width="8" height="8" fill="#000000"/><rect x="88" y="24" width="8" height="8" fill="#000000"/><rect x="112" y="24" width="8" height="8" fill="#000000"/><rect x="128" y="24" width="8" height="8" fill="#000000"/><rect x="136" y="24" width="8" height="8" fill="#000000"/><rect x="16" y="32" width="8" height="8" fill="#000000"/><rect x="32" y="32" width="8" height="8" fill="#000000"/><rect x="40" y="32" width="8" height="8" fill="#000000"/><rect x="56" y="32" width="8" height="8" fill="#000000"/><rect x="72" y="32" width="8" height="8" fill="#000000"/><rect x="88" y="32" width="8" height="8" fill="#000000"/><rect x="104" y="32" width="8" height="8" fill="#000000"/><rect x="112" y="32" width="8" height="8" fill="#000000"/><rect x="120" y="32" width="8" height="8" fill="#000000"/><rect x="136" y="32" width="8" height="8" fill="#000000"/><rect x="144" y="32" width="8" height="8" fill="#000000"/><rect x="152" y="32" width="8" height="8" fill="#000000"/><rect x="8" y="40" width="8" height="8" fill="#000000"/><rect x="40" y="40" width="8" height="8" fill="#000000"/><rect x="48" y="40" width="8" height="8" fill="#000000"/><rect x="64" y="40" width="8" height="8" fill="#000000"/><rect x="80" y="40" width="8" height="8" fill="#000000"/><rect x="104" y="40" width="8" height="8" fill="#000000"/><rect x="120" y="40" width="8" height="8" fill="#000000"/><rect x="128" y="40" width="8" height="8" fill="#000000"/><rect x="136" y="40" width="8" height="8" fill="#000000"/><rect x="144" y="40" width="8" height="8" fill="#000000"/><rect x="152" y="40" width="8" height="8" fill="#000000"/><rect x="16" y="48" width="8" height="8" fill="#000000"/><rect x="40" y="48" width="8" height="8" fill="#000000"/><rect x="48" y="48" width="8" height="8" fill="#000000"/><rect x="56" y="48" width="8" height="8" fill="#000000"/><rect x="64" y="48" width="8" height="8" fill="#000000"/><rect x="72" y="48" width="8" height="8" fill="#000000"/><rect x="80" y="48" width="8" height="8" fill="#000000"/><rect x="88" y="48" width="8" height="8" fill="#000000"/><rect x="96" y="48" width="8" height="8" fill="#000000"/><rect x="104" y="48" width="8" height="8" fill="#000000"/><rect x="112" y="48" width="8" height="8" fill="#000000"/><rect x="120" y="48" width="8" height="8" fill="#000000"/><rect x="136" y="48" width="8" height="8" fill="#000000"/><rect x="152" y="48" width="8" height="8" fill="#000000"/><rect x="8" y="56" width="8" height="8" fill="#000000"/><rect x="16" y="56" width="8" height="8" fill="#000000"/><rect x="24" y="56" width="8" height="8" fill="#000000"/><rect x="48" y="56" width="8" height="8" fill="#000000"/><rect x="112" y="56" width="8" height="8" fill="#000000"/><rect x="120" y="56" width="8" height="8" fill="#000000"/><rect x="136" y="56" width="8" height="8" fill="#000000"/><rect x="144" y="56" width="8" height="8" fill="#000000"/><rect x="152" y="56" width="8" height="8" fill="#000000"/><rect x="8" y="64" width="8" height="8" fill="#000000"/><rect x="40" y="64" width="8" height="8" fill="#000000"/><rect x="48" y="64" width="8" height="8" fill="#000000"/><rect x="64" y="64" width="8" height="8" fill="#000000"/><rect x="72" y="64" width="8" height="8" fill="#000000"/><rect x="80" y="64" width="8" height="8" fill="#000000"/><rect x="88" y="64" width="8" height="8" fill="#000000"/><rect x="96" y="64" width="8" height="8" fill="#000000"/><rect x="112" y="64" width="8" height="8" fill="#000000"/><rect x="128" y="64" width="8" height="8" fill="#000000"/><rect x="144" y="64" width="8" height="8" fill="#000000"/><rect x="152" y="64" width="8" height="8" fill="#000000"/><rect x="16" y="72" width="8" height="8" fill="#000000"/><rect x="24" y="72" width="8" height="8" fill="#000000"/><rect x="32" y="72" width="8" height="8" fill="#000000"/><rect x="48" y="72" width="8" height="8" fill="#000000"/><rect x="64" y="72" width="8" height="8" fill="#000000"/><rect x="96" y="72" width="8" height="8" fill="#000000"/><rect x="112" y="72" width="8" height="8" fill="#000000"/><rect x="128" y="72" width="8" height="8" fill="#000000"/><rect x="152" y="72" width="8" height="8" fill="#000000"/><rect x="16" y="80" width="8" height="8" fill="#000000"/><rect x="24" y="80" width="8" height="8" fill="#000000"/><rect x="48" y="80" width="8" height="8" fill="#000000"/><rect x="64" y="80" width="8" height="8" fill="#000000"/><rect x="80" y="80" width="8" height="8" fill="#000000"/><rect x="96" y="80" width="8" height="8" fill="#000000"/><rect x="112" y="80" width="8" height="8" fill="#000000"/><rect x="120" y="80" width="8" height="8" fill="#000000"/><rect x="136" y="80" width="8" height="8" fill="#000000"/><rect x="24" y="88" width="8" height="8" fill="#000000"/><rect x="40" y="88" width="8" height="8" fill="#000000"/><rect x="48" y="88" width="8" height="8" fill="#000000"/><rect x="64" y="88" width="8" height="8" fill="#000000"/><rect x="96" y="88" width="8" height="8" fill="#000000"/><rect x="112" y="88" width="8" height="8" fill="#000000"/><rect x="144" y="88" width="8" height="8" fill="#000000"/><rect x="8" y="96" width="8" height="8" fill="#000000"/><rect x="16" y="96" width="8" height="8" fill="#000000"/><rect x="32" y="96" width="8" height="8" fill="#000000"/><rect x="48" y="96" width="8" height="8" fill="#000000"/><rect x="64" y="96" width="8" height="8" fill="#000000"/><rect x="72" y="96" width="8" height="8" fill="#000000"/><rect x="80" y="96" width="8" height="8" fill="#000000"/><rect x="88" y="96" width="8" height="8" fill="#000000"/><rect x="96" y="96" width="8" height="8" fill="#000000"/><rect x="112" y="96" width="8" height="8" fill="#000000"/><rect x="144" y="96" width="8" height="8" fill="#000000"/><rect x="152" y="96" width="8" height="8" fill="#000000"/><rect x="16" y="104" width="8" height="8" fill="#000000"/><rect x="24" y="104" width="8" height="8" fill="#000000"/><rect x="48" y="104" width="8" height="8" fill="#000000"/><rect x="112" y="104" width="8" height="8" fill="#000000"/><rect x="120" y="104" width="8" height="8" fill="#000000"/><rect x="128" y="104" width="8" height="8" fill="#000000"/><rect x="136" y="104" width="8" height="8" fill="#000000"/><rect x="144" y="104" width="8" height="8" fill="#000000"/><rect x="152" y="104" width="8" height="8" fill="#000000"/><rect x="48" y="112" width="8" height="8" fill="#000000"/><rect x="56" y="112" width="8" height="8" fill="#000000"/><rect x="64" y="112" width="8" height="8" fill="#000000"/><rect x="72" y="112" width="8" height="8" fill="#000000"/><rect x="80" y="112" width="8" height="8" fill="#000000"/><rect x="88" y="112" width="8" height="8" fill="#000000"/><rect x="96" y="112" width="8" height="8" fill="#000000"/><rect x="104" y="112" width="8" height="8" fill="#000000"/><rect x="112" y="112" width="8" height="8" fill="#000000"/><rect x="120" y="112" width="8" height="8" fill="#000000"/><rect x="136" y="112" width="8" height="8" fill="#000000"/><rect x="144" y="112" width="8" height="8" fill="#000000"/><rect x="8" y="120" width="8" height="8" fill="#000000"/><rect x="16" y="120" width="8" height="8" fill="#000000"/><rect x="72" y="120" width="8" height="8" fill="#000000"/><rect x="80" y="120" width="8" height="8" fill="#000000"/><rect x="96" y="120" width="8" height="8" fill="#000000"/><rect x="136" y="120" width="8" height="8" fill="#000000"/><rect x="144" y="120" width="8" height="8" fill="#000000"/><rect x="152" y="120" width="8" height="8" fill="#000000"/><rect x="8" y="128" width="8" height="8" fill="#000000"/><rect x="16" y="128" width="8" height="8" fill="#000000"/><rect x="40" y="128" width="8" height="8" fill="#000000"/><rect x="48" y="128" width="8" height="8" fill="#000000"/><rect x="72" y="128" width="8" height="8" fill="#000000"/><rect x="80" y="128" width="8" height="8" fill="#000000"/><rect x="88" y="128" width="8" height="8" fill="#000000"/><rect x="96" y="128" width="8" height="8" fill="#000000"/><rect x="104" y="128" width="8" height="8" fill="#000000"/><rect x="112" y="128" width="8" height="8" fill="#000000"/><rect x="144" y="128" width="8" height="8" fill="#000000"/><rect x="8" y="136" width="8" height="8" fill="#000000"/><rect x="40" y="136" width="8" height="8" fill="#000000"/><rect x="48" y="136" width="8" height="8" fill="#000000"/><rect x="56" y="136" width="8" height="8" fill="#000000"/><rect x="72" y="136" width="8" height="8" fill="#000000"/><rect x="80" y="136" width="8" height="8" fill="#000000"/><rect x="88" y="136" width="8" height="8" fill="#000000"/><rect x="96" y="136" width="8" height="8" fill="#000000"/><rect x="104" y="136" width="8" height="8" fill="#000000"/><rect x="112" y="136" width="8" height="8" fill="#000000"/><rect x="152" y="136" width="8" height="8" fill="#000000"/><rect x="8" y="144" width="8" height="8" fill="#000000"/><rect x="16" y="144" width="8" height="8" fill="#000000"/><rect x="40" y="144" width="8" height="8" fill="#000000"/><rect x="48" y="144" width="8" height="8" fill="#000000"/><rect x="56" y="144" width="8" height="8" fill="#000000"/><rect x="64" y="144" width="8" height="8" fill="#000000"/><rect x="80" y="144" width="8" height="8" fill="#000000"/><rect x="88" y="144" width="8" height="8" fill="#000000"/><rect x="104" y="144" width="8" height="8" fill="#000000"/><rect x="136" y="144" width="8" height="8" fill="#000000"/><rect x="8" y="152" width="8" height="8" fill="#000000"/><rect x="16" y="152" width="8" height="8" fill="#000000"/><rect x="24" y="152" width="8" height="8" fill="#000000"/><rect x="32" y="152" width="8" height="8" fill="#000000"/><rect x="56" y="152" width="8" height="8" fill="#000000"/><rect x="64" y="152" width="8" height="8" fill="#000000"/><rect x="96" y="152" width="8" height="8" fill="#000000"/><rect x="104" y="152" width="8" height="8" fill="#000000"/><rect x="112" y="152" width="8" height="8" fill="#000000"/><rect x="120" y="152" width="8" height="8" fill="#000000"/><rect x="128" y="152" width="8" height="8" fill="#000000"/><rect x="152" y="152" width="8" height="8" fill="#000000"/></svg>
