<svg xmlns="http://www.w3.org/2000/svg" width="444" height="200" viewBox="0 0 444 200" shape-rendering="crispEdges"><rect x="0" y="0" width="444" height="200" fill="#ffffff"/><rect x="40" y="0" width="4" height="200" fill="#000000"/><rect x="48" y="0" width="8" height="200" fill="#000000"/><rect x="64" y="0" width="4" height="200" fill="#000000"/><rect x="76" y="0" width="4" height="200" fill="#000000"/><rect x="84" y="0" width="4" height="200" fill="#000000"/><rect x="92" y="0" width="4" height="200" fill="#000000"/><rect x="100" y="0" width="8" height="200" fill="#000000"/><rect x="116" y="0" width="4" height="200" fill="#000000"/><rect x="124" y="0" width="4" height="200" fill="#000000"/><rect x="132" y="0" width="4" height="200" fill="#000000"/><rect x="144" y="0" width="4" height="200" fill="#000000"/><rect x="152" y="0" width="8" height="200" fill="#000000"/><rect x="164" y="0" width="8" height="200" fill="#000000"/><rect x="180" y="0" width="4" height="200" fill="#000000"/><rect x="188" y="0" width="4" height="200" fill="#000000"/><rect x="196" y="0" width="4" height="200" fill="#000000"/><rect x="204" y="0" width="4" height="200" fill="#000000"/><rect x="212" y="0" width="8" height="200" fill="#000000"/><rect x="224" y="0" width="4" height="200" fill="#000000"/><rect x="236" y="0" width="4" height="200" fill="#000000"/><rect x="244" y="0" width="4" height="200" fill="#000000"/><rect x="252" y="0" width="4" height="200" fill="#000000"/><rect x="264" y="0" width="8" height="200" fill="#000000"/><rect x="276" y="0" width="4" height="200" fill="#000000"/><rect x="284" y="0" width="8" height="200" fill="#000000"/><rect x="296" y="0" width="4" height="200" fill="#000000"/><rect x="304" y="0" width="4" height="200" fill="#000000"/><rect x="316" y="0" width="4" height="200" fill="#000000"/><rect x="324" y="0" width="4" height="200" fill="#000000"/><rect x="336" y="0" width="4" height="200" fill="#000000"/><rect x="344" y="0" width="4" height="200" fill="#000000"/><rect x="352" y="0" width="8" height="200" fill="#000000"/><rect x="364" y="0" width="4" height="200" fill="#000000"/><rect x="372" y="0" width="4" height="200" fill="#000000"/><rect x="384" y="0" width="8" height="200" fill="#000000"/><rect x="400" y="0" width="4" height="200" fill="#000000"/></svg>
