<svg xmlns="http://www.w3.org/2000/svg" width="960" height="200" viewBox="0 0 960 200" shape-rendering="crispEdges"><rect x="0" y="0" width="960" height="200" fill="#ffffff"/><rect x="40" y="0" width="4" height="200" fill="#000000"/><rect x="52" y="0" width="4" height="200" fill="#000000"/><rect x="60" y="0" width="8" height="200" fill="#000000"/><rect x="72" y="0" width="8" height="200" fill="#000000"/><rect x="84" y="0" width="4" height="200" fill="#000000"/><rect x="92" y="0" width="8" height="200" fill="#000000"/><rect x="104" y="0" width="4" height="200" fill="#000000"/><rect x="112" y="0" width="4" height="200" fill="#000000"/><rect x="120" y="0" width="8" height="200" fill="#000000"/><rect x="136" y="0" width="4" height="200" fill="#000000"/><rect x="144" y="0" width="4" height="200" fill="#000000"/><rect x="156" y="0" width="4" height="200" fill="#000000"/><rect x="164" y="0" width="4" height="200" fill="#000000"/><rect x="176" y="0" width="4" height="200" fill="#000000"/><rect x="188" y="0" width="4" height="200" fill="#000000"/><rect x="196" y="0" width="8" height="200" fill="#000000"/><rect x="208" y="0" width="4" height="200" fill="#000000"/><rect x="216" y="0" width="8" height="200" fill="#000000"/><rect x="232" y="0" width="4" height="200" fill="#000000"/><rect x="240" y="0" width="4" height="200" fill="#000000"/><rect x="248" y="0" width="4" height="200" fill="#000000"/><rect x="260" y="0" width="4" height="200" fill="#000000"/><rect x="268" y="0" width="4" height="200" fill="#000000"/><rect x="280" y="0" width="4" height="200" fill="#000000"/><rect x="292" y="0" width="4" height="200" fill="#000000"/><rect x="300" y="0" width="4" height="200" fill="#000000"/><rect x="308" y="0" width="4" height="200" fill="#000000"/><rect x="316" y="0" width="8" height="200" fill="#000000"/><rect x="328" y="0" width="4" height="200" fill="#000000"/><rect x="340" y="0" width="8" height="200" fill="#000000"/><rect x="352" y="0" width="4" height="200" fill="#000000"/><rect x="364" y="0" width="4" height="200" fill="#000000"/><rect x="372" y="0" width="4" height="200" fill="#000000"/><rect x="384" y="0" width="4" height="200" fill="#000000"/><rect x="396" y="0" width="4" height="200" fill="#000000"/><rect x="404" y="0" width="4" height="200" fill="#000000"/><rect x="412" y="0" width="4" height="200" fill="#000000"/><rect x="420" y="0" width="8" height="200" fill="#000000"/><rect x="436" y="0" width="4" height="200" fill="#000000"/><rect x="444" y="0" width="8" height="200" fill="#000000"/><rect x="456" y="0" width="4" height="200" fill="#000000"/><rect x="468" y="0" width="4" height="200" fill="#000000"/><rect x="476" y="0" width="4" height="200" fill="#000000"/><rect x="488" y="0" width="4" height="200" fill="#000000"/><rect x="500" y="0" width="4" height="200" fill="#000000"/><rect x="508" y="0" width="8" height="200" fill="#000000"/><rect x="520" y="0" width="4" height="200" fill="#000000"/><rect x="528" y="0" width="8" height="200" fill="#000000"/><rect x="544" y="0" width="4" height="200" fill="#000000"/><rect x="552" y="0" width="4" height="200" fill="#000000"/><rect x="560" y="0" width="4" height="200" fill="#000000"/><rect x="572" y="0" width="4" height="200" fill="#000000"/><rect x="580" y="0" width="4" height="200" fill="#000000"/><rect x="592" y="0" width="4" height="200" fill="#000000"/><rect x="604" y="0" width="4" height="200" fill="#000000"/><rect x="612" y="0" width="8" height="200" fill="#000000"/><rect x="624" y="0" width="4" height="200" fill="#000000"/><rect x="632" y="0" width="4" height="200" fill="#000000"/><rect x="640" y="0" width="8" height="200" fill="#000000"/><rect x="656" y="0" width="4" height="200" fill="#000000"/><rect x="664" y="0" width="4" height="200" fill="#000000"/><rect x="676" y="0" width="4" height="200" fill="#000000"/><rect x="684" y="0" width="4" height="200" fill="#000000"/><rect x="692" y="0" width="8" height="200" fill="#000000"/><rect x="704" y="0" width="8" height="200" fill="#000000"/><rect x="716" y="0" width="8" height="200" fill="#000000"/><rect x="728" y="0" width="8" height="200" fill="#000000"/><rect x="744" y="0" width="4" height="200" fill="#000000"/><rect x="752" y="0" width="4" height="200" fill="#000000"/><rect x="760" y="0" width="4" height="200" fill="#000000"/><rect x="768" y="0" width="4" height="200" fill="#000000"/><rect x="776" y="0" width="8" height="200" fill="#000000"/><rect x="792" y="0" width="4" height="200" fill="#000000"/><rect x="800" y="0" width="8" height="200" fill="#000000"/><rect x="812" y="0" width="4" height="200" fill="#000000"/><rect x="820" y="0" width="8" height="200" fill="#000000"/><rect x="832" y="0" width="4" height="200" fill="#000000"/><rect x="840" y="0" width="4" height="200" fill="#000000"/><rect x="848" y="0" width="8" height="200" fill="#000000"/><rect x="864" y="0" width="4" height="200" fill="#000000"/><rect x="872" y="0" width="4" height="200" fill="#000000"/><rect x="884" y="0" width="4" height="200" fill="#000000"/><rect x="892" y="0" width="8" height="200" fill="#000000"/><rect x="904" y="0" width="8" height="200" fill="#000000"/><rect x="916" y="0" width="4" height="200" fill="#000000"/></svg>
