<svg xmlns="http://www.w3.org/2000/svg" width="880" height="200" viewBox="0 0 880 200" shape-rendering="crispEdges"><rect x="0" y="0" width="880" height="200" fill="#ffffff"/><rect x="40" y="0" width="8" height="200" fill="#000000"/><rect x="52" y="0" width="4" height="200" fill="#000000"/><rect x="64" y="0" width="4" height="200" fill="#000000"/><rect x="84" y="0" width="8" height="200" fill="#000000"/><rect x="104" y="0" width="4" height="200" fill="#000000"/><rect x="112" y="0" width="12" height="200" fill="#000000"/><rect x="128" y="0" width="4" height="200" fill="#000000"/><rect x="144" y="0" width="8" height="200" fill="#000000"/><rect x="156" y="0" width="4" height="200" fill="#000000"/><rect x="172" y="0" width="4" height="200" fill="#000000"/><rect x="180" y="0" width="12" height="200" fill="#000000"/><rect x="204" y="0" width="8" height="200" fill="#000000"/><rect x="216" y="0" width="4" height="200" fill="#000000"/><rect x="224" y="0" width="8" height="200" fill="#000000"/><rect x="244" y="0" width="4" height="200" fill="#000000"/><rect x="260" y="0" width="4" height="200" fill="#000000"/><rect x="276" y="0" width="8" height="200" fill="#000000"/><rect x="288" y="0" width="4" height="200" fill="#000000"/><rect x="304" y="0" width="8" height="200" fill="#000000"/><rect x="324" y="0" width="4" height="200" fill="#000000"/><rect x="332" y="0" width="12" height="200" fill="#000000"/><rect x="348" y="0" width="4" height="200" fill="#000000"/><rect x="360" y="0" width="8" height="200" fill="#000000"/><rect x="372" y="0" width="12" height="200" fill="#000000"/><rect x="392" y="0" width="4" height="200" fill="#000000"/><rect x="408" y="0" width="4" height="200" fill="#000000"/><rect x="424" y="0" width="8" height="200" fill="#000000"/><rect x="436" y="0" width="4" height="200" fill="#000000"/><rect x="448" y="0" width="12" height="200" fill="#000000"/><rect x="468" y="0" width="8" height="200" fill="#000000"/><rect x="480" y="0" width="8" height="200" fill="#000000"/><rect x="496" y="0" width="12" height="200" fill="#000000"/><rect x="516" y="0" width="4" height="200" fill="#000000"/><rect x="524" y="0" width="12" height="200" fill="#000000"/><rect x="540" y="0" width="4" height="200" fill="#000000"/><rect x="552" y="0" width="8" height="200" fill="#000000"/><rect x="568" y="0" width="4" height="200" fill="#000000"/><rect x="580" y="0" width="8" height="200" fill="#000000"/><rect x="592" y="0" width="12" height="200" fill="#000000"/><rect x="612" y="0" width="4" height="200" fill="#000000"/><rect x="620" y="0" width="12" height="200" fill="#000000"/><rect x="636" y="0" width="16" height="200" fill="#000000"/><rect x="656" y="0" width="8" height="200" fill="#000000"/><rect x="672" y="0" width="4" height="200" fill="#000000"/><rect x="684" y="0" width="12" height="200" fill="#000000"/><rect x="700" y="0" width="12" height="200" fill="#000000"/><rect x="720" y="0" width="4" height="200" fill="#000000"/><rect x="732" y="0" width="8" height="200" fill="#000000"/><rect x="744" y="0" width="12" height="200" fill="#000000"/><rect x="768" y="0" width="8" height="200" fill="#000000"/><rect x="780" y="0" width="4" height="200" fill="#000000"/><rect x="788" y="0" width="8" height="200" fill="#000000"/><rect x="808" y="0" width="12" height="200" fill="#000000"/><rect x="824" y="0" width="4" height="200" fill="#000000"/><rect x="832" y="0" width="8" height="200" fill="#000000"/></svg>
