<svg xmlns="http://www.w3.org/2000/svg" width="732" height="200" viewBox="0 0 732 200" shape-rendering="crispEdges"><rect x="0" y="0" width="732" height="200" fill="#ffffff"/><rect x="40" y="0" width="4" height="200" fill="#000000"/><rect x="48" y="0" width="4" height="200" fill="#000000"/><rect x="56" y="0" width="16" height="200" fill="#000000"/><rect x="76" y="0" width="8" height="200" fill="#000000"/><rect x="88" y="0" width="8" height="200" fill="#000000"/><rect x="104" y="0" width="4" height="200" fill="#000000"/><rect x="112" y="0" width="4" height="200" fill="#000000"/><rect x="124" y="0" width="8" height="200" fill="#000000"/><rect x="140" y="0" width="4" height="200" fill="#000000"/><rect x="148" y="0" width="8" height="200" fill="#000000"/><rect x="164" y="0" width="4" height="200" fill="#000000"/><rect x="176" y="0" width="4" height="200" fill="#000000"/><rect x="184" y="0" width="4" height="200" fill="#000000"/><rect x="196" y="0" width="8" height="200" fill="#000000"/><rect x="212" y="0" width="4" height="200" fill="#000000"/><rect x="220" y="0" width="4" height="200" fill="#000000"/><rect x="228" y="0" width="4" height="200" fill="#000000"/><rect x="244" y="0" width="8" height="200" fill="#000000"/><rect x="256" y="0" width="4" height="200" fill="#000000"/><rect x="268" y="0" width="8" height="200" fill="#000000"/><rect x="284" y="0" width="4" height="200" fill="#000000"/><rect x="292" y="0" width="8" height="200" fill="#000000"/><rect x="308" y="0" width="4" height="200" fill="#000000"/><rect x="316" y="0" width="4" height="200" fill="#000000"/><rect x="328" y="0" width="4" height="200" fill="#000000"/><rect x="340" y="0" width="8" height="200" fill="#000000"/><rect x="356" y="0" width="4" height="200" fill="#000000"/><rect x="364" y="0" width="8" height="200" fill="#000000"/><rect x="380" y="0" width="4" height="200" fill="#000000"/><rect x="392" y="0" width="4" height="200" fill="#000000"/><rect x="400" y="0" width="4" height="200" fill="#000000"/><rect x="412" y="0" width="8" height="200" fill="#000000"/><rect x="428" y="0" width="4" height="200" fill="#000000"/><rect x="436" y="0" width="8" height="200" fill="#000000"/><rect x="448" y="0" width="8" height="200" fill="#000000"/><rect x="464" y="0" width="4" height="200" fill="#000000"/><rect x="472" y="0" width="4" height="200" fill="#000000"/><rect x="484" y="0" width="4" height="200" fill="#000000"/><rect x="492" y="0" width="12" height="200" fill="#000000"/><rect x="508" y="0" width="4" height="200" fill="#000000"/><rect x="528" y="0" width="4" height="200" fill="#000000"/><rect x="536" y="0" width="4" height="200" fill="#000000"/><rect x="544" y="0" width="4" height="200" fill="#000000"/><rect x="552" y="0" width="4" height="200" fill="#000000"/><rect x="572" y="0" width="4" height="200" fill="#000000"/><rect x="580" y="0" width="8" height="200" fill="#000000"/><rect x="592" y="0" width="4" height="200" fill="#000000"/><rect x="600" y="0" width="8" height="200" fill="#000000"/><rect x="616" y="0" width="8" height="200" fill="#000000"/><rect x="628" y="0" width="4" height="200" fill="#000000"/><rect x="640" y="0" width="8" height="200" fill="#000000"/><rect x="652" y="0" width="4" height="200" fill="#000000"/><rect x="660" y="0" width="4" height="200" fill="#000000"/><rect x="668" y="0" width="16" height="200" fill="#000000"/><rect x="688" y="0" width="4" height="200" fill="#000000"/></svg>
