<svg xmlns="http://www.w3.org/2000/svg" width="676" height="200" viewBox="0 0 676 200" shape-rendering="crispEdges"><rect x="0" y="0" width="676" height="200" fill="#ffffff"/><rect x="44" y="0" width="4" height="200" fill="#000000"/><rect x="52" y="0" width="4" height="200" fill="#000000"/><rect x="68" y="0" width="4" height="200" fill="#000000"/><rect x="76" y="0" width="8" height="200" fill="#000000"/><rect x="88" y="0" width="4" height="200" fill="#000000"/><rect x="100" y="0" width="12" height="200" fill="#000000"/><rect x="116" y="0" width="8" height="200" fill="#000000"/><rect x="132" y="0" width="8" height="200" fill="#000000"/><rect x="148" y="0" width="4" height="200" fill="#000000"/><rect x="160" y="0" width="8" height="200" fill="#000000"/><rect x="172" y="0" width="16" height="200" fill="#000000"/><rect x="192" y="0" width="4" height="200" fill="#000000"/><rect x="204" y="0" width="12" height="200" fill="#000000"/><rect x="220" y="0" width="4" height="200" fill="#000000"/><rect x="228" y="0" width="4" height="200" fill="#000000"/><rect x="236" y="0" width="4" height="200" fill="#000000"/><rect x="244" y="0" width="8" height="200" fill="#000000"/><rect x="260" y="0" width="8" height="200" fill="#000000"/><rect x="272" y="0" width="8" height="200" fill="#000000"/><rect x="284" y="0" width="8" height="200" fill="#000000"/><rect x="300" y="0" width="4" height="200" fill="#000000"/><rect x="320" y="0" width="4" height="200" fill="#000000"/><rect x="328" y="0" width="4" height="200" fill="#000000"/><rect x="336" y="0" width="12" height="200" fill="#000000"/><rect x="356" y="0" width="4" height="200" fill="#000000"/><rect x="368" y="0" width="12" height="200" fill="#000000"/><rect x="384" y="0" width="4" height="200" fill="#000000"/><rect x="400" y="0" width="4" height="200" fill="#000000"/><rect x="412" y="0" width="4" height="200" fill="#000000"/><rect x="420" y="0" width="4" height="200" fill="#000000"/><rect x="460" y="0" width="4" height="200" fill="#000000"/><rect x="468" y="0" width="8" height="200" fill="#000000"/><rect x="480" y="0" width="8" height="200" fill="#000000"/><rect x="500" y="0" width="4" height="200" fill="#000000"/><rect x="508" y="0" width="4" height="200" fill="#000000"/><rect x="520" y="0" width="8" height="200" fill="#000000"/><rect x="536" y="0" width="4" height="200" fill="#000000"/><rect x="544" y="0" width="4" height="200" fill="#000000"/><rect x="556" y="0" width="8" height="200" fill="#000000"/><rect x="568" y="0" width="8" height="200" fill="#000000"/><rect x="580" y="0" width="4" height="200" fill="#000000"/><rect x="588" y="0" width="16" height="200" fill="#000000"/><rect x="608" y="0" width="4" height="200" fill="#000000"/><rect x="616" y="0" width="4" height="200" fill="#000000"/><rect x="628" y="0" width="12" height="200" fill="#000000"/><rect x="644" y="0" width="4" height="200" fill="#000000"/></svg>
