<svg xmlns="http://www.w3.org/2000/svg" width="1056" height="200" viewBox="0 0 1056 200" shape-rendering="crispEdges"><rect x="0" y="0" width="1056" height="200" fill="#ffffff"/><rect x="40" y="0" width="8" height="200" fill="#000000"/><rect x="52" y="0" width="4" height="200" fill="#000000"/><rect x="64" y="0" width="12" height="200" fill="#000000"/><rect x="84" y="0" width="16" height="200" fill="#000000"/><rect x="104" y="0" width="4" height="200" fill="#000000"/><rect x="112" y="0" width="12" height="200" fill="#000000"/><rect x="128" y="0" width="8" height="200" fill="#000000"/><rect x="144" y="0" width="8" height="200" fill="#000000"/><rect x="156" y="0" width="8" height="200" fill="#000000"/><rect x="172" y="0" width="8" height="200" fill="#000000"/><rect x="188" y="0" width="4" height="200" fill="#000000"/><rect x="200" y="0" width="4" height="200" fill="#000000"/><rect x="216" y="0" width="8" height="200" fill="#000000"/><rect x="236" y="0" width="4" height="200" fill="#000000"/><rect x="244" y="0" width="12" height="200" fill="#000000"/><rect x="260" y="0" width="8" height="200" fill="#000000"/><rect x="280" y="0" width="4" height="200" fill="#000000"/><rect x="292" y="0" width="4" height="200" fill="#000000"/><rect x="304" y="0" width="8" height="200" fill="#000000"/><rect x="320" y="0" width="8" height="200" fill="#000000"/><rect x="332" y="0" width="8" height="200" fill="#000000"/><rect x="348" y="0" width="8" height="200" fill="#000000"/><rect x="360" y="0" width="12" height="200" fill="#000000"/><rect x="376" y="0" width="12" height="200" fill="#000000"/><rect x="392" y="0" width="8" height="200" fill="#000000"/><rect x="404" y="0" width="8" height="200" fill="#000000"/><rect x="420" y="0" width="8" height="200" fill="#000000"/><rect x="436" y="0" width="4" height="200" fill="#000000"/><rect x="448" y="0" width="4" height="200" fill="#000000"/><rect x="460" y="0" width="8" height="200" fill="#000000"/><rect x="480" y="0" width="8" height="200" fill="#000000"/><rect x="496" y="0" width="4" height="200" fill="#000000"/><rect x="512" y="0" width="4" height="200" fill="#000000"/><rect x="524" y="0" width="4" height="200" fill="#000000"/><rect x="532" y="0" width="16" height="200" fill="#000000"/><rect x="552" y="0" width="12" height="200" fill="#000000"/><rect x="568" y="0" width="8" height="200" fill="#000000"/><rect x="588" y="0" width="4" height="200" fill="#000000"/><rect x="596" y="0" width="12" height="200" fill="#000000"/><rect x="612" y="0" width="4" height="200" fill="#000000"/><rect x="628" y="0" width="8" height="200" fill="#000000"/><rect x="640" y="0" width="4" height="200" fill="#000000"/><rect x="656" y="0" width="4" height="200" fill="#000000"/><rect x="664" y="0" width="12" height="200" fill="#000000"/><rect x="688" y="0" width="8" height="200" fill="#000000"/><rect x="700" y="0" width="4" height="200" fill="#000000"/><rect x="708" y="0" width="8" height="200" fill="#000000"/><rect x="728" y="0" width="4" height="200" fill="#000000"/><rect x="744" y="0" width="4" height="200" fill="#000000"/><rect x="760" y="0" width="8" height="200" fill="#000000"/><rect x="772" y="0" width="4" height="200" fill="#000000"/><rect x="788" y="0" width="8" height="200" fill="#000000"/><rect x="808" y="0" width="4" height="200" fill="#000000"/><rect x="816" y="0" width="12" height="200" fill="#000000"/><rect x="832" y="0" width="8" height="200" fill="#000000"/><rect x="848" y="0" width="12" height="200" fill="#000000"/><rect x="868" y="0" width="4" height="200" fill="#000000"/><rect x="876" y="0" width="8" height="200" fill="#000000"/><rect x="892" y="0" width="12" height="200" fill="#000000"/><rect x="908" y="0" width="4" height="200" fill="#000000"/><rect x="920" y="0" width="12" height="200" fill="#000000"/><rect x="936" y="0" width="4" height="200" fill="#000000"/><rect x="952" y="0" width="8" height="200" fill="#000000"/><rect x="964" y="0" width="8" height="200" fill="#000000"/><rect x="984" y="0" width="12" height="200" fill="#000000"/><rect x="1000" y="0" width="4" height="200" fill="#000000"/><rect x="1008" y="0" width="8" height="200" fill="#000000"/></svg>
