<svg xmlns="http://www.w3.org/2000/svg" width="476" height="200" viewBox="0 0 476 200" shape-rendering="crispEdges"><rect x="0" y="0" width="476" height="200" fill="#ffffff"/><rect x="40" y="0" width="4" height="200" fill="#000000"/><rect x="48" y="0" width="4" height="200" fill="#000000"/><rect x="56" y="0" width="12" height="200" fill="#000000"/><rect x="72" y="0" width="4" height="200" fill="#000000"/><rect x="88" y="0" width="4" height="200" fill="#000000"/><rect x="96" y="0" width="4" height="200" fill="#000000"/><rect x="104" y="0" width="12" height="200" fill="#000000"/><rect x="128" y="0" width="12" height="200" fill="#000000"/><rect x="144" y="0" width="12" height="200" fill="#000000"/><rect x="160" y="0" width="4" height="200" fill="#000000"/><rect x="176" y="0" width="4" height="200" fill="#000000"/><rect x="184" y="0" width="4" height="200" fill="#000000"/><rect x="200" y="0" width="12" height="200" fill="#000000"/><rect x="216" y="0" width="4" height="200" fill="#000000"/><rect x="232" y="0" width="12" height="200" fill="#000000"/><rect x="256" y="0" width="4" height="200" fill="#000000"/><rect x="264" y="0" width="4" height="200" fill="#000000"/><rect x="272" y="0" width="4" height="200" fill="#000000"/><rect x="288" y="0" width="4" height="200" fill="#000000"/><rect x="296" y="0" width="4" height="200" fill="#000000"/><rect x="304" y="0" width="12" height="200" fill="#000000"/><rect x="328" y="0" width="12" height="200" fill="#000000"/><rect x="344" y="0" width="4" height="200" fill="#000000"/><rect x="352" y="0" width="12" height="200" fill="#000000"/><rect x="368" y="0" width="4" height="200" fill="#000000"/><rect x="384" y="0" width="12" height="200" fill="#000000"/><rect x="408" y="0" width="4" height="200" fill="#000000"/><rect x="416" y="0" width="12" height="200" fill="#000000"/><rect x="432" y="0" width="4" height="200" fill="#000000"/></svg>
