<svg xmlns="http://www.w3.org/2000/svg" width="568" height="200" viewBox="0 0 568 200" shape-rendering="crispEdges"><rect x="0" y="0" width="568" height="200" fill="#ffffff"/><rect x="36" y="0" width="4" height="200" fill="#000000"/><rect x="44" y="0" width="4" height="200" fill="#000000"/><rect x="60" y="0" width="8" height="200" fill="#000000"/><rect x="72" y="0" width="4" height="200" fill="#000000"/><rect x="80" y="0" width="4" height="200" fill="#000000"/><rect x="96" y="0" width="8" height="200" fill="#000000"/><rect x="112" y="0" width="4" height="200" fill="#000000"/><rect x="124" y="0" width="8" height="200" fill="#000000"/><rect x="140" y="0" width="8" height="200" fill="#000000"/><rect x="156" y="0" width="4" height="200" fill="#000000"/><rect x="172" y="0" width="8" height="200" fill="#000000"/><rect x="184" y="0" width="4" height="200" fill="#000000"/><rect x="200" y="0" width="8" height="200" fill="#000000"/><rect x="212" y="0" width="4" height="200" fill="#000000"/><rect x="220" y="0" width="4" height="200" fill="#000000"/><rect x="228" y="0" width="4" height="200" fill="#000000"/><rect x="236" y="0" width="12" height="200" fill="#000000"/><rect x="256" y="0" width="4" height="200" fill="#000000"/><rect x="264" y="0" width="12" height="200" fill="#000000"/><rect x="284" y="0" width="4" height="200" fill="#000000"/><rect x="292" y="0" width="4" height="200" fill="#000000"/><rect x="304" y="0" width="12" height="200" fill="#000000"/><rect x="320" y="0" width="8" height="200" fill="#000000"/><rect x="332" y="0" width="8" height="200" fill="#000000"/><rect x="348" y="0" width="4" height="200" fill="#000000"/><rect x="356" y="0" width="4" height="200" fill="#000000"/><rect x="376" y="0" width="4" height="200" fill="#000000"/><rect x="384" y="0" width="12" height="200" fill="#000000"/><rect x="404" y="0" width="4" height="200" fill="#000000"/><rect x="412" y="0" width="4" height="200" fill="#000000"/><rect x="452" y="0" width="4" height="200" fill="#000000"/><rect x="460" y="0" width="8" height="200" fill="#000000"/><rect x="476" y="0" width="8" height="200" fill="#000000"/><rect x="492" y="0" width="4" height="200" fill="#000000"/><rect x="500" y="0" width="4" height="200" fill="#000000"/><rect x="512" y="0" width="4" height="200" fill="#000000"/><rect x="524" y="0" width="8" height="200" fill="#000000"/></svg>
