<svg xmlns="http://www.w3.org/2000/svg" width="492" height="200" viewBox="0 0 492 200" shape-rendering="crispEdges"><rect x="0" y="0" width="492" height="200" fill="#ffffff"/><rect x="36" y="0" width="4" height="200" fill="#000000"/><rect x="44" y="0" width="4" height="200" fill="#000000"/><rect x="52" y="0" width="8" height="200" fill="#000000"/><rect x="68" y="0" width="8" height="200" fill="#000000"/><rect x="84" y="0" width="4" height="200" fill="#000000"/><rect x="96" y="0" width="8" height="200" fill="#000000"/><rect x="108" y="0" width="16" height="200" fill="#000000"/><rect x="128" y="0" width="4" height="200" fill="#000000"/><rect x="140" y="0" width="12" height="200" fill="#000000"/><rect x="156" y="0" width="4" height="200" fill="#000000"/><rect x="164" y="0" width="12" height="200" fill="#000000"/><rect x="184" y="0" width="4" height="200" fill="#000000"/><rect x="192" y="0" width="4" height="200" fill="#000000"/><rect x="200" y="0" width="16" height="200" fill="#000000"/><rect x="220" y="0" width="4" height="200" fill="#000000"/><rect x="228" y="0" width="4" height="200" fill="#000000"/><rect x="236" y="0" width="4" height="200" fill="#000000"/><rect x="276" y="0" width="4" height="200" fill="#000000"/><rect x="284" y="0" width="8" height="200" fill="#000000"/><rect x="296" y="0" width="8" height="200" fill="#000000"/><rect x="316" y="0" width="4" height="200" fill="#000000"/><rect x="324" y="0" width="4" height="200" fill="#000000"/><rect x="336" y="0" width="8" height="200" fill="#000000"/><rect x="352" y="0" width="4" height="200" fill="#000000"/><rect x="360" y="0" width="4" height="200" fill="#000000"/><rect x="372" y="0" width="8" height="200" fill="#000000"/><rect x="384" y="0" width="8" height="200" fill="#000000"/><rect x="396" y="0" width="4" height="200" fill="#000000"/><rect x="404" y="0" width="16" height="200" fill="#000000"/><rect x="424" y="0" width="4" height="200" fill="#000000"/><rect x="432" y="0" width="4" height="200" fill="#000000"/><rect x="444" y="0" width="12" height="200" fill="#000000"/><rect x="460" y="0" width="4" height="200" fill="#000000"/></svg>
